<?xml version="1.0" encoding="UTF-8"?>
<svg version="1.1" xmlns="http://www.w3.org/2000/svg" width="68" height="68">
<path d="M0 0 C2.375 1.25 2.375 1.25 4 3 C5.24210749 7.39261852 5.18354019 11.8449738 5.1875 16.375 C5.19974609 17.10460937 5.21199219 17.83421875 5.22460938 18.5859375 C5.2376504 23.454587 4.43249595 27.35754373 3 32 C3.2981424 33.34164079 3.62243192 34.67851173 4 36 C3.34 36.99 2.68 37.98 2 39 C2 39.99 2 40.98 2 42 C2.99 42.66 3.98 43.32 5 44 C4.25 49.75 4.25 49.75 2 52 C-0.61580479 51.6730244 -2.64078137 51.17960932 -5 50 C-5.226875 50.804375 -5.45375 51.60875 -5.6875 52.4375 C-7 55 -7 55 -9.4375 56 C-12 56 -12 56 -13.5859375 54.79296875 C-15.28570196 52.63774255 -15.68176133 50.99680524 -16.1875 48.3125 C-16.34605469 47.50425781 -16.50460938 46.69601563 -16.66796875 45.86328125 C-16.77753906 45.24839844 -16.88710938 44.63351563 -17 44 C-22.76108467 46.72530353 -28.3723812 49.59419162 -33.8515625 52.84765625 C-35.11069458 53.59438599 -35.11069458 53.59438599 -36.39526367 54.35620117 C-38.07303564 55.35854626 -39.74524685 56.37026608 -41.41137695 57.3918457 C-42.192146 57.8580835 -42.97291504 58.32432129 -43.77734375 58.8046875 C-44.81749634 59.43866455 -44.81749634 59.43866455 -45.87866211 60.08544922 C-49.71848336 61.74087221 -52.42444224 61.21592011 -56.26953125 59.7734375 C-60.00473575 55.97945296 -59.75613194 53.23766986 -59.77148438 48.0546875 C-59.74376953 46.92289063 -59.71605469 45.79109375 -59.6875 44.625 C-59.70232422 43.5009375 -59.71714844 42.376875 -59.73242188 41.21875 C-59.68451157 36.45026532 -59.49729647 32.95512496 -57.27734375 28.69140625 C-52.64268658 24.23699946 -46.47678123 21.38491184 -40.875 18.3125 C-38.97885167 17.25867503 -37.08450586 16.20166144 -35.19029236 15.1443634 C-33.92717883 14.43973291 -32.66323286 13.73659256 -31.39845276 13.03495789 C-27.60760579 10.9257076 -23.87541478 8.74372194 -20.17578125 6.4765625 C-19.32193848 5.95795654 -18.4680957 5.43935059 -17.58837891 4.9050293 C-16.03362289 3.95468982 -14.48704271 2.99078837 -12.95068359 2.01098633 C-8.26627826 -0.81701461 -5.51413944 -1.50385621 0 0 Z " fill="#F9F9F9" transform="translate(61,4)"/>
<path d="M0 0 C2.375 1.25 2.375 1.25 4 3 C5.24210749 7.39261852 5.18354019 11.8449738 5.1875 16.375 C5.19974609 17.10460937 5.21199219 17.83421875 5.22460938 18.5859375 C5.2376504 23.454587 4.43249595 27.35754373 3 32 C3.2981424 33.34164079 3.62243192 34.67851173 4 36 C3.34 36.99 2.68 37.98 2 39 C2 39.99 2 40.98 2 42 C2.99 42.66 3.98 43.32 5 44 C4.25 49.75 4.25 49.75 2 52 C-0.61580479 51.6730244 -2.64078137 51.17960932 -5 50 C-5.226875 50.804375 -5.45375 51.60875 -5.6875 52.4375 C-7 55 -7 55 -9.4375 56 C-12 56 -12 56 -13.5859375 54.79296875 C-15.28570196 52.63774255 -15.68176133 50.99680524 -16.1875 48.3125 C-16.34605469 47.50425781 -16.50460938 46.69601563 -16.66796875 45.86328125 C-16.77753906 45.24839844 -16.88710938 44.63351563 -17 44 C-22.76108467 46.72530353 -28.3723812 49.59419162 -33.8515625 52.84765625 C-35.11069458 53.59438599 -35.11069458 53.59438599 -36.39526367 54.35620117 C-38.07303564 55.35854626 -39.74524685 56.37026608 -41.41137695 57.3918457 C-42.192146 57.8580835 -42.97291504 58.32432129 -43.77734375 58.8046875 C-44.81749634 59.43866455 -44.81749634 59.43866455 -45.87866211 60.08544922 C-49.71848336 61.74087221 -52.42444224 61.21592011 -56.26953125 59.7734375 C-60.00473575 55.97945296 -59.75613194 53.23766986 -59.77148438 48.0546875 C-59.74376953 46.92289063 -59.71605469 45.79109375 -59.6875 44.625 C-59.70232422 43.5009375 -59.71714844 42.376875 -59.73242188 41.21875 C-59.68451157 36.45026532 -59.49729647 32.95512496 -57.27734375 28.69140625 C-52.64268658 24.23699946 -46.47678123 21.38491184 -40.875 18.3125 C-38.97885167 17.25867503 -37.08450586 16.20166144 -35.19029236 15.1443634 C-33.92717883 14.43973291 -32.66323286 13.73659256 -31.39845276 13.03495789 C-27.60760579 10.9257076 -23.87541478 8.74372194 -20.17578125 6.4765625 C-19.32193848 5.95795654 -18.4680957 5.43935059 -17.58837891 4.9050293 C-16.03362289 3.95468982 -14.48704271 2.99078837 -12.95068359 2.01098633 C-8.26627826 -0.81701461 -5.51413944 -1.50385621 0 0 Z M-9.1875 8.0625 C-10.68632872 8.97588314 -12.18641807 9.8871996 -13.6875 10.796875 C-14.93466797 11.55581055 -14.93466797 11.55581055 -16.20703125 12.33007812 C-19.34381216 14.20556601 -22.51113258 16.02050934 -25.6875 17.828125 C-26.55306267 18.3213047 -26.55306267 18.3213047 -27.43611145 18.82444763 C-30.3173516 20.46581262 -33.20105281 22.1024356 -36.08862305 23.73266602 C-45.30734108 28.47336281 -45.30734108 28.47336281 -52 36 C-52.08449628 37.7404417 -52.10723024 39.48409722 -52.09765625 41.2265625 C-52.09443359 42.2578125 -52.09121094 43.2890625 -52.08789062 44.3515625 C-52.07951172 45.43179688 -52.07113281 46.51203125 -52.0625 47.625 C-52.05798828 48.71296875 -52.05347656 49.8009375 -52.04882812 50.921875 C-52.03701776 53.61463789 -52.02054778 56.30729188 -52 59 C-48.98353694 60.38509101 -48.98353694 60.38509101 -46.15258789 58.69238281 C-44.45477173 57.7077002 -44.45477173 57.7077002 -42.72265625 56.703125 C-42.11489853 56.35368835 -41.50714081 56.00425171 -40.88096619 55.64422607 C-39.59473997 54.9023189 -38.31131582 54.15553585 -37.03051758 53.40429688 C-35.07871065 52.259508 -33.11947673 51.12847831 -31.15820312 50 C-21.98201473 45.6816277 -21.98201473 45.6816277 -16.25 38.3125 C-16.1675 37.549375 -16.085 36.78625 -16 36 C-14.87980469 35.68546875 -13.75960937 35.3709375 -12.60546875 35.046875 C-11.132593 34.61533179 -9.65994854 34.18299863 -8.1875 33.75 C-7.44951172 33.54503906 -6.71152344 33.34007813 -5.95117188 33.12890625 C-5.23896484 32.91621094 -4.52675781 32.70351563 -3.79296875 32.484375 C-2.81106567 32.20158691 -2.81106567 32.20158691 -1.80932617 31.91308594 C0.65724078 30.66832 1.6337096 29.39517372 3 27 C3.41042461 24.39383416 3.41042461 24.39383416 3.29296875 21.578125 C3.28330078 20.55332031 3.27363281 19.52851563 3.26367188 18.47265625 C3.23853516 17.40917969 3.21339844 16.34570312 3.1875 15.25 C3.17396484 14.17105469 3.16042969 13.09210937 3.14648438 11.98046875 C3.11116584 9.3198058 3.06184199 6.66015704 3 4 C-2.05122696 3.77154715 -5.00079613 5.43728254 -9.1875 8.0625 Z " fill="#342F1F" transform="translate(61,4)"/>
<path d="M0 0 C-0.11509661 1.41750563 -0.24253658 2.83401169 -0.375 4.25 C-0.44460937 5.03890625 -0.51421875 5.8278125 -0.5859375 6.640625 C-1 9 -1 9 -3 13 C0.3 11.68 3.6 10.36 7 9 C6 14 6 14 3.79443359 15.78930664 C2.83875488 16.32418701 1.88307617 16.85906738 0.8984375 17.41015625 C-0.14957031 18.00763672 -1.19757812 18.60511719 -2.27734375 19.22070312 C-3.38207031 19.82849609 -4.48679687 20.43628906 -5.625 21.0625 C-6.70652344 21.67416016 -7.78804687 22.28582031 -8.90234375 22.91601562 C-10.99616774 24.09842539 -13.09529226 25.27150951 -15.20019531 26.43408203 C-17.53235034 27.73844568 -19.80814074 29.10077848 -22.0859375 30.49609375 C-23.04757813 30.99238281 -24.00921875 31.48867188 -25 32 C-25.99 31.67 -26.98 31.34 -28 31 C-28 26.71 -28 22.42 -28 18 C-26.35 17.67 -24.7 17.34 -23 17 C-22.938125 15.741875 -22.87625 14.48375 -22.8125 13.1875 C-22.40297287 9.88203101 -22.31710039 9.27424899 -19.6875 7 C-17 6 -17 6 -13 6 C-13.49230769 12.52307692 -13.49230769 12.52307692 -16.0625 14.9375 C-16.701875 15.288125 -17.34125 15.63875 -18 16 C-14.04 15.505 -14.04 15.505 -10 15 C-10.33 14.34 -10.66 13.68 -11 13 C-11.5811138 5.91041162 -11.5811138 5.91041162 -9.125 2.0625 C-5.75381443 -1.20953306 -4.44249032 -1.05216876 0 0 Z " fill="#E5E8EF" transform="translate(37,32)"/>
<path d="M0 0 C0.14560195 3.72875388 0.23417043 7.45677434 0.3125 11.1875 C0.35439453 12.24259766 0.39628906 13.29769531 0.43945312 14.38476562 C0.56196835 22.15223061 0.56196835 22.15223061 -2.05078125 26.09375 C-5.42126109 28.27228531 -8.63065653 29.42753135 -12.5 30.3125 C-13.15097656 30.48072266 -13.80195312 30.64894531 -14.47265625 30.82226562 C-18.04250326 31.70571261 -21.32516673 32.19080865 -25 32 C-25 31.34 -25 30.68 -25 30 C-23.02 29.34 -21.04 28.68 -19 28 C-19 27.01 -19 26.02 -19 25 C-20.98 25 -22.96 25 -25 25 C-25.0625 22.375 -25.0625 22.375 -24 19 C-21.24324616 16.59837383 -18.15140384 14.83667755 -15 13 C-13.47677212 12.04547727 -11.95573133 11.08745022 -10.4375 10.125 C-9.29253872 9.41525792 -8.14705163 8.70635877 -7 8 C-7.99 6.35 -8.98 4.7 -10 3 C-6.41659212 0.54280602 -4.30874796 -0.17379824 0 0 Z " fill="#DEE0E3" transform="translate(64,8)"/>
<path d="M0 0 C0.495 0.99 0.495 0.99 1 2 C-1.92223984 5.1651116 -4.84703943 7.26553796 -8.5859375 9.390625 C-9.67559814 10.01428955 -10.76525879 10.6379541 -11.88793945 11.28051758 C-13.05017789 11.93721544 -14.21253342 12.59370608 -15.375 13.25 C-16.55785077 13.92351942 -17.74038597 14.59759336 -18.92260742 15.2722168 C-21.2371902 16.59199976 -23.55377537 17.90802933 -25.87158203 19.22216797 C-28.47231754 20.70012614 -31.0655427 22.18925977 -33.65234375 23.69140625 C-34.28930176 24.06040039 -34.92625977 24.42939453 -35.58251953 24.80957031 C-37.17623515 25.73350254 -38.76976682 26.65775207 -40.36328125 27.58203125 C-42.86242653 28.92601605 -45.36649693 29.95453898 -48 31 C-48.99 31.66 -49.98 32.32 -51 33 C-52.32 32.01 -53.64 31.02 -55 30 C-49.51509023 24.96498684 -43.27232849 21.52470504 -36.8125 17.875 C-35.06753173 16.88357012 -33.32337643 15.89072208 -31.5793457 14.89764404 C-30.40999654 14.23192506 -29.2402375 13.56692553 -28.07006836 12.90264893 C-24.42083617 10.8267207 -20.80464935 8.70305279 -17.20703125 6.5390625 C-15.9089856 5.76393311 -15.9089856 5.76393311 -14.5847168 4.97314453 C-12.98023095 4.01220482 -11.38112008 3.04221578 -9.78833008 2.06201172 C-8.72134888 1.42803467 -8.72134888 1.42803467 -7.6328125 0.78125 C-7.02324707 0.41064453 -6.41368164 0.04003906 -5.78564453 -0.34179688 C-3.47109231 -1.19495968 -2.26513956 -0.90870722 0 0 Z " fill="#D5B336" transform="translate(59,5)"/>
<path d="M0 0 C2.375 1.25 2.375 1.25 4 3 C5.24210749 7.39261852 5.18354019 11.8449738 5.1875 16.375 C5.19974609 17.10460937 5.21199219 17.83421875 5.22460938 18.5859375 C5.2376504 23.454587 4.43249595 27.35754373 3 32 C3.2981424 33.34164079 3.62243192 34.67851173 4 36 C3.34 36.99 2.68 37.98 2 39 C2 39.99 2 40.98 2 42 C2.99 42.66 3.98 43.32 5 44 C4.25 49.75 4.25 49.75 2 52 C-0.61580479 51.6730244 -2.64078137 51.17960932 -5 50 C-5.226875 50.804375 -5.45375 51.60875 -5.6875 52.4375 C-6.120625 53.283125 -6.55375 54.12875 -7 55 C-9.625 55.8125 -9.625 55.8125 -12 56 C-13 53 -13 53 -12.0625 50.8125 C-11.711875 50.214375 -11.36125 49.61625 -11 49 C-10.34 50.65 -9.68 52.3 -9 54 C-7.68 52.02 -6.36 50.04 -5 48 C-2.69 48.33 -0.38 48.66 2 49 C2.33 47.68 2.66 46.36 3 45 C1.68 44.01 0.36 43.02 -1 42 C-0.690625 41.236875 -0.38125 40.47375 -0.0625 39.6875 C0.67893593 37.81210323 1.36228217 35.91315348 2 34 C1.01 33.505 1.01 33.505 0 33 C0 30 0 30 2 27 C2.36696181 24.48497823 2.36696181 24.48497823 2.4140625 21.67578125 C2.45273437 20.64775391 2.49140625 19.61972656 2.53125 18.56054688 C2.57765625 16.95276367 2.57765625 16.95276367 2.625 15.3125 C2.66367187 14.22904297 2.70234375 13.14558594 2.7421875 12.02929688 C2.83650509 9.35303533 2.92210005 6.67678157 3 4 C1.35 4 -0.3 4 -2 4 C-2.495 2.515 -2.495 2.515 -3 1 C-7.24440554 1.59320458 -10.24744648 3.07734579 -13.9296875 5.23828125 C-15.05503906 5.89376953 -16.18039063 6.54925781 -17.33984375 7.22460938 C-18.51834676 7.92037377 -19.69673135 8.61633879 -20.875 9.3125 C-22.04518702 9.99740453 -23.21575683 10.68165551 -24.38671875 11.36523438 C-25.51464844 12.02458984 -26.64257812 12.68394531 -27.8046875 13.36328125 C-28.88459961 13.99443848 -29.96451172 14.6255957 -31.07714844 15.27587891 C-32.81928775 16.30352573 -34.5545399 17.34322424 -36.27441406 18.40771484 C-37.80761013 19.34430992 -39.39831127 20.18606281 -41 21 C-41.99 20.67 -42.98 20.34 -44 20 C-42.92105469 19.40574219 -41.84210937 18.81148437 -40.73046875 18.19921875 C-39.65792847 17.60620972 -39.65792847 17.60620972 -38.5637207 17.0012207 C-36.96307689 16.11628652 -35.36132724 15.23334995 -33.75854492 14.35229492 C-29.38975538 11.9366811 -25.07634235 9.46134645 -20.8203125 6.8515625 C-19.98218018 6.34407471 -19.14404785 5.83658691 -18.28051758 5.3137207 C-16.66400187 4.33044292 -15.0565628 3.33204806 -13.4597168 2.31713867 C-8.58998577 -0.62306633 -5.74020401 -1.62868336 0 0 Z " fill="#181405" transform="translate(61,4)"/>
<path d="M0 0 C-0.66666667 2.66666667 -1.33333333 5.33333333 -2 8 C-0.68 8.99 0.64 9.98 2 11 C1.34 12.65 0.68 14.3 0 16 C-2.31 15.67 -4.62 15.34 -7 15 C-8.98 17.97 -8.98 17.97 -11 21 C-14.57466661 15.63800008 -15.12572435 10.29519786 -15 4 C-12.87607494 3.3299166 -10.75082476 2.66403203 -8.625 2 C-7.44164062 1.62875 -6.25828125 1.2575 -5.0390625 0.875 C-2 0 -2 0 0 0 Z " fill="#F9F9F9" transform="translate(63,38)"/>
<path d="M0 0 C-1 2 -1 2 -3.1796875 2.8515625 C-4.51386719 3.23441406 -4.51386719 3.23441406 -5.875 3.625 C-6.75929688 3.88539062 -7.64359375 4.14578125 -8.5546875 4.4140625 C-11 5 -11 5 -14 5 C-13.83242188 5.74765625 -13.66484375 6.4953125 -13.4921875 7.265625 C-13.28851563 8.25046875 -13.08484375 9.2353125 -12.875 10.25 C-12.66617188 11.22453125 -12.45734375 12.1990625 -12.2421875 13.203125 C-11.9797004 16.23442766 -12.38011151 17.48017346 -14 20 C-14.19335938 19.30132812 -14.38671875 18.60265625 -14.5859375 17.8828125 C-14.84632812 16.97273438 -15.10671875 16.06265625 -15.375 15.125 C-15.63023438 14.22007813 -15.88546875 13.31515625 -16.1484375 12.3828125 C-16.8604315 9.85430274 -16.8604315 9.85430274 -19 8 C-18.43359375 5.15625 -18.43359375 5.15625 -17 2 C-13.84765625 0.46875 -13.84765625 0.46875 -10.0625 -0.5 C-8.81597656 -0.8403125 -7.56945312 -1.180625 -6.28515625 -1.53125 C-3 -2 -3 -2 0 0 Z " fill="#584E28" transform="translate(62,37)"/>
<path d="M0 0 C0.33 0 0.66 0 1 0 C1 20.28571429 1 20.28571429 -1 28 C-0.01 28.66 0.98 29.32 2 30 C1.25 35.75 1.25 35.75 -1 38 C-3.61580479 37.6730244 -5.64078137 37.17960932 -8 36 C-8.226875 36.804375 -8.45375 37.60875 -8.6875 38.4375 C-9.120625 39.283125 -9.55375 40.12875 -10 41 C-12.625 41.8125 -12.625 41.8125 -15 42 C-16 39 -16 39 -15.0625 36.8125 C-14.711875 36.214375 -14.36125 35.61625 -14 35 C-13.34 36.65 -12.68 38.3 -12 40 C-10.68 38.02 -9.36 36.04 -8 34 C-5.69 34.33 -3.38 34.66 -1 35 C-0.67 33.68 -0.34 32.36 0 31 C-1.32 30.01 -2.64 29.02 -4 28 C-3.690625 27.236875 -3.38125 26.47375 -3.0625 25.6875 C-2.32106407 23.81210323 -1.63771783 21.91315348 -1 20 C-1.66 19.67 -2.32 19.34 -3 19 C-3 16 -3 16 -1 13 C-0.5396236 9.80193335 -0.5396236 9.80193335 -0.375 6.3125 C-0.30023438 5.13300781 -0.22546875 3.95351563 -0.1484375 2.73828125 C-0.09945312 1.83464844 -0.05046875 0.93101563 0 0 Z " fill="#2D2B24" transform="translate(64,18)"/>
<path d="M0 0 C2.475 0.99 2.475 0.99 5 2 C4.67 9.59 4.34 17.18 4 25 C2.68 24.34 1.36 23.68 0 23 C0 15.41 0 7.82 0 0 Z " fill="#F0C230" transform="translate(3,37)"/>
<path d="M0 0 C0.825 0.66 1.65 1.32 2.5 2 C6.38171673 4.61854525 9.40768211 4.3011356 14 4 C14.99 4 15.98 4 17 4 C16.34 5.65 15.68 7.3 15 9 C12.69 8.67 10.38 8.34 8 8 C6.02 10.97 6.02 10.97 4 14 C1.90284215 10.85426323 1.47995441 8.98543749 0.875 5.3125 C0.70742188 4.31863281 0.53984375 3.32476562 0.3671875 2.30078125 C0.24601562 1.54152344 0.12484375 0.78226563 0 0 Z " fill="#E3E7ED" transform="translate(48,45)"/>
<path d="M0 0 C-0.48979592 6.48979592 -0.48979592 6.48979592 -2.9375 8.9375 C-5 10 -5 10 -7 10 C-7 11.98 -7 13.96 -7 16 C-7.66 16 -8.32 16 -9 16 C-9.13496251 13.89758397 -9.23197307 11.7927039 -9.3125 9.6875 C-9.37050781 8.51574219 -9.42851562 7.34398437 -9.48828125 6.13671875 C-9 3 -9 3 -6.73046875 1.08203125 C-4 0 -4 0 0 0 Z " fill="#4E4F4F" transform="translate(24,38)"/>
<path d="M0 0 C0.48514851 6.30693069 0.48514851 6.30693069 -1.75 9.5 C-4 11 -4 11 -6.25 10.75 C-7.11625 10.37875 -7.11625 10.37875 -8 10 C-7.39457203 3.58246347 -7.39457203 3.58246347 -5.6875 1.0625 C-4 0 -4 0 0 0 Z " fill="#F3F3F3" transform="translate(35,33)"/>
<path d="M0 0 C-0.11633446 4.85431964 -0.35390004 8.10263895 -3.25 12.125 C-6 14 -6 14 -8.8125 13.8125 C-9.534375 13.544375 -10.25625 13.27625 -11 13 C-11.49029622 5.76813075 -11.49029622 5.76813075 -9.125 2.0625 C-5.75381443 -1.20953306 -4.44249032 -1.05216876 0 0 Z M-8.25 3.1875 C-10.11375268 6.18281681 -10.39344358 7.55736871 -10 11 C-8.21858253 11.86358623 -8.21858253 11.86358623 -6 12 C-3.58526981 10.58709872 -3.58526981 10.58709872 -2 8 C-1.66582071 4.3324787 -1.66582071 4.3324787 -2 1 C-6.04501965 0.53528107 -6.04501965 0.53528107 -8.25 3.1875 Z " fill="#383838" transform="translate(37,32)"/>
<path d="M0 0 C0.99 0.33 1.98 0.66 3 1 C1.7934375 1.6496875 1.7934375 1.6496875 0.5625 2.3125 C-2.27846354 3.80474002 -2.27846354 3.80474002 -3 7 C-1.02 6.67 0.96 6.34 3 6 C2.8125 9.3125 2.8125 9.3125 2 13 C-0.41764576 14.92171842 -1.88467214 16 -5 16 C-5 15.34 -5 14.68 -5 14 C-3.02 13.34 -1.04 12.68 1 12 C1 11.01 1 10.02 1 9 C-0.98 9 -2.96 9 -5 9 C-4.51386623 3.53099511 -4.51386623 3.53099511 -2.125 1.0625 C-1.42375 0.711875 -0.7225 0.36125 0 0 Z " fill="#515151" transform="translate(44,24)"/>
<path d="M0 0 C0.33 0 0.66 0 1 0 C1 19.44444444 1 19.44444444 0 24 C-0.185625 24.928125 -0.37125 25.85625 -0.5625 26.8125 C-0.706875 27.534375 -0.85125 28.25625 -1 29 C-1.99 28.67 -2.98 28.34 -4 28 C-3.690625 27.236875 -3.38125 26.47375 -3.0625 25.6875 C-2.32106407 23.81210323 -1.63771783 21.91315348 -1 20 C-1.66 19.67 -2.32 19.34 -3 19 C-3 16 -3 16 -1 13 C-0.5396236 9.80193335 -0.5396236 9.80193335 -0.375 6.3125 C-0.30023438 5.13300781 -0.22546875 3.95351563 -0.1484375 2.73828125 C-0.09945312 1.83464844 -0.05046875 0.93101563 0 0 Z " fill="#232321" transform="translate(64,18)"/>
<path d="M0 0 C-0.33 0.66 -0.66 1.32 -1 2 C-3.3984375 2.66796875 -3.3984375 2.66796875 -6.375 3.1875 C-7.35210937 3.36667969 -8.32921875 3.54585937 -9.3359375 3.73046875 C-12 4 -12 4 -15 3 C-14.34 3 -13.68 3 -13 3 C-13 2.34 -13 1.68 -13 1 C-11.40139351 0.44213732 -9.79582095 -0.09579568 -8.1875 -0.625 C-7.29417969 -0.92664062 -6.40085937 -1.22828125 -5.48046875 -1.5390625 C-3 -2 -3 -2 0 0 Z " fill="#988333" transform="translate(62,37)"/>
<path d="M0 0 C2.475 0.495 2.475 0.495 5 1 C7.07434732 6.11236781 7.24424065 10.46330893 7.125 15.875 C7.11597656 16.65875 7.10695313 17.4425 7.09765625 18.25 C7.07428063 20.16680055 7.03841653 22.08344191 7 24 C6.67 24 6.34 24 6 24 C5.25194283 16.97360585 4.86205046 10.06608191 5 3 C3.35 3 1.7 3 0 3 C0 2.01 0 1.02 0 0 Z " fill="#191712" transform="translate(59,5)"/>
<path d="M0 0 C-0.48979592 6.48979592 -0.48979592 6.48979592 -2.9375 8.9375 C-5 10 -5 10 -7 10 C-7 11.65 -7 13.3 -7 15 C-7.33 15 -7.66 15 -8 15 C-8.3125 12.1875 -8.3125 12.1875 -8 9 C-5.5625 7.375 -5.5625 7.375 -3 6 C-2.12177688 3.91466367 -2.12177688 3.91466367 -2 2 C-3.65 2.33 -5.3 2.66 -7 3 C-4.49955934 -0.00052879 -4.2621484 0 0 0 Z " fill="#2D2D2D" transform="translate(24,38)"/>
<path d="M0 0 C2 2 2 2 2 5 C2.66 5 3.32 5 4 5 C5.07637127 8.87493656 4.94566951 10.52452927 3 14 C2.49307308 12.4188708 1.99473557 10.83498617 1.5 9.25 C1.2215625 8.36828125 0.943125 7.4865625 0.65625 6.578125 C0 4 0 4 0 0 Z " fill="#BA9D32" transform="translate(45,43)"/>
<path d="M0 0 C0.99 0.33 1.98 0.66 3 1 C1.7934375 1.6496875 1.7934375 1.6496875 0.5625 2.3125 C-2.27846354 3.80474002 -2.27846354 3.80474002 -3 7 C-1.35 7 0.3 7 2 7 C-0.64738916 8.4606285 -1.89448334 9 -5 9 C-4.51386623 3.53099511 -4.51386623 3.53099511 -2.125 1.0625 C-1.42375 0.711875 -0.7225 0.36125 0 0 Z " fill="#252525" transform="translate(44,24)"/>
<path d="M0 0 C0.99 0 1.98 0 3 0 C2.67 1.65 2.34 3.3 2 5 C0.68 5.33 -0.64 5.66 -2 6 C-1.125 1.125 -1.125 1.125 0 0 Z " fill="#F4F4F4" transform="translate(19,40)"/>
<path d="M0 0 C0.66 1.32 1.32 2.64 2 4 C3.65 4 5.3 4 7 4 C6.01 5.485 6.01 5.485 5 7 C3.35 6.67 1.7 6.34 0 6 C0 4.02 0 2.04 0 0 Z " fill="#1C1C1C" transform="translate(26,39)"/>
</svg>
